<svg width="53" height="48" viewBox="0 0 53 48" fill="none" xmlns="http://www.w3.org/2000/svg">
<g filter="url(#filter0_d_67_1312)">
<path d="M34.0412 17.0708C32.6248 16.4209 31.106 15.9421 29.5179 15.6679C29.489 15.6626 29.4601 15.6758 29.4452 15.7023C29.2499 16.0497 29.0335 16.5029 28.882 16.8592C27.1739 16.6035 25.4747 16.6035 23.8016 16.8592C23.6501 16.495 23.4259 16.0497 23.2297 15.7023C23.2148 15.6767 23.1859 15.6635 23.1569 15.6679C21.5698 15.9413 20.0509 16.4201 18.6337 17.0708C18.6214 17.0761 18.6109 17.085 18.6039 17.0964C15.723 21.4004 14.9338 25.5987 15.321 29.7449C15.3227 29.7652 15.3341 29.7846 15.3499 29.7969C17.2506 31.1928 19.0918 32.0402 20.8988 32.6019C20.9277 32.6107 20.9584 32.6001 20.9768 32.5763C21.4042 31.9926 21.7853 31.3771 22.112 30.7298C22.1313 30.6919 22.1128 30.647 22.0734 30.632C21.4691 30.4027 20.8936 30.1232 20.34 29.8057C20.2962 29.7802 20.2927 29.7175 20.333 29.6875C20.4495 29.6003 20.566 29.5094 20.6772 29.4177C20.6974 29.401 20.7254 29.3974 20.7491 29.408C24.3859 31.0685 28.3231 31.0685 31.917 29.408C31.9407 29.3966 31.9687 29.4001 31.9898 29.4168C32.101 29.5086 32.2175 29.6003 32.3349 29.6875C32.3752 29.7175 32.3725 29.7802 32.3287 29.8057C31.7752 30.1293 31.1997 30.4027 30.5944 30.6311C30.555 30.6461 30.5375 30.6919 30.5568 30.7298C30.8905 31.3762 31.2715 31.9917 31.6911 32.5754C31.7086 32.6001 31.7401 32.6107 31.769 32.6019C33.5848 32.0402 35.426 31.1928 37.3267 29.7969C37.3434 29.7846 37.3539 29.766 37.3557 29.7458C37.819 24.9523 36.5796 20.7885 34.0701 17.0973C34.0639 17.085 34.0534 17.0761 34.0412 17.0708ZM22.6551 27.2203C21.5601 27.2203 20.658 26.2151 20.658 24.9805C20.658 23.746 21.5426 22.7408 22.6551 22.7408C23.7762 22.7408 24.6697 23.7548 24.6522 24.9805C24.6522 26.2151 23.7675 27.2203 22.6551 27.2203ZM30.0391 27.2203C28.9442 27.2203 28.042 26.2151 28.042 24.9805C28.042 23.746 28.9267 22.7408 30.0391 22.7408C31.1603 22.7408 32.0537 23.7548 32.0362 24.9805C32.0362 26.2151 31.1603 27.2203 30.0391 27.2203Z" fill="white"/>
</g>
<defs>
<filter id="filter0_d_67_1312" x="0.229126" y="0.666748" width="52.2222" height="46.9382" filterUnits="userSpaceOnUse" color-interpolation-filters="sRGB">
<feFlood flood-opacity="0" result="BackgroundImageFix"/>
<feColorMatrix in="SourceAlpha" type="matrix" values="0 0 0 0 0 0 0 0 0 0 0 0 0 0 0 0 0 0 127 0" result="hardAlpha"/>
<feOffset/>
<feGaussianBlur stdDeviation="7.5"/>
<feComposite in2="hardAlpha" operator="out"/>
<feColorMatrix type="matrix" values="0 0 0 0 0.2625 0 0 0 0 0.646 0 0 0 0 1 0 0 0 0.9 0"/>
<feBlend mode="normal" in2="BackgroundImageFix" result="effect1_dropShadow_67_1312"/>
<feBlend mode="normal" in="SourceGraphic" in2="effect1_dropShadow_67_1312" result="shape"/>
</filter>
</defs>
</svg>
