<svg width="50" height="47" viewBox="0 0 50 47" fill="none" xmlns="http://www.w3.org/2000/svg">
<g filter="url(#filter0_d_67_1315)">
<path fill-rule="evenodd" clip-rule="evenodd" d="M27.1858 18.0328C25.4174 18.7684 21.883 20.2908 16.5826 22.6001C15.7219 22.9424 15.271 23.2772 15.23 23.6046C15.1606 24.1579 15.8536 24.3758 16.7971 24.6725C16.9255 24.7129 17.0585 24.7547 17.1948 24.799C18.1231 25.1008 19.3719 25.4538 20.0211 25.4678C20.61 25.4805 21.2672 25.2378 21.9928 24.7395C26.9451 21.3966 29.5015 19.7069 29.662 19.6705C29.7752 19.6448 29.9322 19.6124 30.0385 19.7069C30.1448 19.8014 30.1343 19.9804 30.1231 20.0284C30.0544 20.321 27.3345 22.8497 25.9269 24.1583C25.4881 24.5663 25.1768 24.8557 25.1132 24.9218C24.9706 25.0698 24.8254 25.2099 24.6858 25.3444C23.8233 26.1758 23.1766 26.7993 24.7216 27.8174C25.464 28.3067 26.0582 28.7113 26.6509 29.115C27.2982 29.5558 27.9438 29.9954 28.7791 30.543C28.992 30.6825 29.1952 30.8274 29.3932 30.9686C30.1465 31.5056 30.8233 31.9881 31.6594 31.9111C32.1452 31.8664 32.6471 31.4096 32.902 30.0471C33.5043 26.8271 34.6882 19.8503 34.9619 16.9753C34.9858 16.7234 34.9557 16.4011 34.9315 16.2596C34.9072 16.1181 34.8566 15.9164 34.6727 15.7672C34.4549 15.5904 34.1186 15.5531 33.9682 15.5558C33.2843 15.5678 32.2351 15.9327 27.1858 18.0328Z" fill="white"/>
</g>
<defs>
<filter id="filter0_d_67_1315" x="0.22522" y="0.555664" width="49.7455" height="46.3636" filterUnits="userSpaceOnUse" color-interpolation-filters="sRGB">
<feFlood flood-opacity="0" result="BackgroundImageFix"/>
<feColorMatrix in="SourceAlpha" type="matrix" values="0 0 0 0 0 0 0 0 0 0 0 0 0 0 0 0 0 0 127 0" result="hardAlpha"/>
<feOffset/>
<feGaussianBlur stdDeviation="7.5"/>
<feComposite in2="hardAlpha" operator="out"/>
<feColorMatrix type="matrix" values="0 0 0 0 0.2625 0 0 0 0 0.646 0 0 0 0 1 0 0 0 0.9 0"/>
<feBlend mode="normal" in2="BackgroundImageFix" result="effect1_dropShadow_67_1315"/>
<feBlend mode="normal" in="SourceGraphic" in2="effect1_dropShadow_67_1315" result="shape"/>
</filter>
</defs>
</svg>
