<svg width="54" height="49" viewBox="0 0 54 49" fill="none" xmlns="http://www.w3.org/2000/svg">
<g filter="url(#filter0_d_67_1309)">
<path d="M22.5657 34.0002C31.3685 34.0002 36.1847 26.7323 36.1847 20.4316C36.1847 20.2273 36.1801 20.0184 36.171 19.8141C37.1079 19.1391 37.9164 18.3029 38.5586 17.345C37.686 17.7318 36.7596 17.9844 35.811 18.0942C36.8098 17.4977 37.5577 16.5606 37.916 15.4566C36.9763 16.0115 35.9487 16.4028 34.8772 16.614C34.1552 15.8497 33.2006 15.3437 32.161 15.1741C31.1214 15.0045 30.0547 15.1809 29.1258 15.6759C28.1969 16.1709 27.4575 16.957 27.022 17.9126C26.5865 18.8683 26.4791 19.9403 26.7164 20.9628C24.8138 20.8677 22.9524 20.3753 21.253 19.5174C19.5536 18.6596 18.0541 17.4556 16.8517 15.9833C16.2406 17.0331 16.0536 18.2752 16.3287 19.4574C16.6038 20.6395 17.3204 21.673 18.3328 22.3477C17.5728 22.3236 16.8294 22.1197 16.164 21.7529V21.8119C16.1633 22.9135 16.5456 23.9813 17.2458 24.8339C17.946 25.6865 18.921 26.2711 20.0049 26.4885C19.3008 26.6805 18.5619 26.7084 17.8452 26.5703C18.1511 27.5176 18.7462 28.3463 19.5475 28.9405C20.3488 29.5346 21.3163 29.8648 22.315 29.8848C20.6195 31.2117 18.5251 31.9314 16.3691 31.928C15.9867 31.9274 15.6048 31.904 15.2252 31.858C17.4155 33.258 19.9634 34.0016 22.5657 34.0002Z" fill="white"/>
</g>
<defs>
<filter id="filter0_d_67_1309" x="0.22522" y="0.111328" width="53.3334" height="48.8889" filterUnits="userSpaceOnUse" color-interpolation-filters="sRGB">
<feFlood flood-opacity="0" result="BackgroundImageFix"/>
<feColorMatrix in="SourceAlpha" type="matrix" values="0 0 0 0 0 0 0 0 0 0 0 0 0 0 0 0 0 0 127 0" result="hardAlpha"/>
<feOffset/>
<feGaussianBlur stdDeviation="7.5"/>
<feComposite in2="hardAlpha" operator="out"/>
<feColorMatrix type="matrix" values="0 0 0 0 0.2625 0 0 0 0 0.646 0 0 0 0 1 0 0 0 0.9 0"/>
<feBlend mode="normal" in2="BackgroundImageFix" result="effect1_dropShadow_67_1309"/>
<feBlend mode="normal" in="SourceGraphic" in2="effect1_dropShadow_67_1309" result="shape"/>
</filter>
</defs>
</svg>
